<svg width="11" height="19" viewBox="0 0 11 19" fill="none" xmlns="http://www.w3.org/2000/svg">
<path d="M0.00469971 17.004C0.00393867 16.8724 0.0291634 16.742 0.078928 16.6201C0.128693 16.4983 0.20202 16.3875 0.294701 16.294L7.5947 9.00403L0.294701 1.71403C0.106397 1.52573 0.000608444 1.27033 0.000608444 1.00403C0.000608444 0.737729 0.106397 0.482334 0.294701 0.294031C0.483005 0.105727 0.738398 -6.10352e-05 1.0047 -6.10352e-05C1.271 -6.10352e-05 1.52639 0.105727 1.7147 0.294031L9.7147 8.29403C9.80843 8.38699 9.88282 8.49759 9.93359 8.61945C9.98436 8.74131 10.0105 8.87202 10.0105 9.00403C10.0105 9.13604 9.98436 9.26675 9.93359 9.38861C9.88282 9.51047 9.80843 9.62107 9.7147 9.71403L1.7147 17.714C1.62174 17.8078 1.51114 17.8822 1.38928 17.9329C1.26742 17.9837 1.13671 18.0098 1.0047 18.0098C0.872688 18.0098 0.741982 17.9837 0.620123 17.9329C0.498263 17.8822 0.387664 17.8078 0.294701 17.714C0.20202 17.6206 0.128693 17.5098 0.078928 17.3879C0.0291634 17.2661 0.00393867 17.1356 0.00469971 17.004Z" fill="white"/>
</svg>
