<svg width="53" height="53" viewBox="0 0 53 53" fill="none" xmlns="http://www.w3.org/2000/svg">
<circle cx="26.5" cy="26.5" r="25.5" stroke="black" stroke-width="2"/>
<path d="M39 32.8332C39 33.3886 38.8458 33.9035 38.5989 34.3565L30.7054 25.407L38.5133 18.4846C38.817 18.9731 39 19.5468 39 20.1668V32.8332ZM26.5 27.0319L37.3645 17.399C36.9187 17.1517 36.4166 17 35.8751 17H17.125C16.5827 17 16.0805 17.1517 15.6365 17.399L26.5 27.0319ZM29.529 26.4491L27.0141 28.6803C26.867 28.8102 26.6839 28.875 26.5 28.875C26.3161 28.875 26.1329 28.8102 25.9858 28.6803L23.4704 26.449L15.477 35.5129C15.9562 35.8175 16.5177 36 17.1249 36H35.8751C36.4822 36 37.044 35.8175 37.523 35.5129L29.529 26.4491ZM14.4868 18.4846C14.1831 18.973 14 19.5467 14 20.1668V32.8333C14 33.3887 14.1534 33.9035 14.4013 34.3565L22.2939 25.4054L14.4868 18.4846Z" fill="black"/>
</svg>
