<svg width="53" height="53" viewBox="0 0 53 53" fill="none" xmlns="http://www.w3.org/2000/svg">
<circle cx="26.5" cy="26.5" r="25.5" stroke="black" stroke-width="2"/>
<rect width="21" height="21" transform="translate(16 16)" fill="white"/>
<path d="M33.9238 16H19.0762C17.3801 16 16 17.3801 16 19.0762V33.9238C16 35.6199 17.3801 37 19.0762 37H25.2695V29.5762H22.8086V25.8848H25.2695V23.3828C25.2695 21.3473 26.9254 19.6914 28.9609 19.6914H32.6934V23.3828H28.9609V25.8848H32.6934L32.0781 29.5762H28.9609V37H33.9238C35.6199 37 37 35.6199 37 33.9238V19.0762C37 17.3801 35.6199 16 33.9238 16Z" fill="#272727"/>
</svg>
