<svg width="53" height="53" viewBox="0 0 53 53" fill="none" xmlns="http://www.w3.org/2000/svg">
<path d="M27.9336 26.5C27.9336 27.5193 27.0678 28.3457 26 28.3457C24.9322 28.3457 24.0664 27.5193 24.0664 26.5C24.0664 25.4807 24.9322 24.6543 26 24.6543C27.0678 24.6543 27.9336 25.4807 27.9336 26.5Z" fill="#272727"/>
<path d="M29.2656 20.9219H22.7344C21.3127 20.9219 20.1562 22.0258 20.1562 23.3828V29.6172C20.1562 30.9742 21.3127 32.0781 22.7344 32.0781H29.2656C30.6873 32.0781 31.8438 30.9742 31.8438 29.6172V23.3828C31.8438 22.0258 30.6873 20.9219 29.2656 20.9219ZM26 29.5762C24.223 29.5762 22.7773 28.1962 22.7773 26.5C22.7773 24.8038 24.223 23.4238 26 23.4238C27.777 23.4238 29.2227 24.8038 29.2227 26.5C29.2227 28.1962 27.777 29.5762 26 29.5762ZM29.6953 23.5879C29.3393 23.5879 29.0508 23.3125 29.0508 22.9727C29.0508 22.6328 29.3393 22.3574 29.6953 22.3574C30.0513 22.3574 30.3398 22.6328 30.3398 22.9727C30.3398 23.3125 30.0513 23.5879 29.6953 23.5879Z" fill="#272727"/>
<path d="M31.1992 16H20.8008C17.6023 16 15 18.484 15 21.5371V31.4629C15 34.516 17.6023 37 20.8008 37H31.1992C34.3977 37 37 34.516 37 31.4629V21.5371C37 18.484 34.3977 16 31.1992 16ZM33.1328 29.6172C33.1328 31.6526 31.3979 33.3086 29.2656 33.3086H22.7344C20.6021 33.3086 18.8672 31.6526 18.8672 29.6172V23.3828C18.8672 21.3474 20.6021 19.6914 22.7344 19.6914H29.2656C31.3979 19.6914 33.1328 21.3474 33.1328 23.3828V29.6172Z" fill="#272727"/>
<circle cx="26.5" cy="26.5" r="25.5" stroke="black" stroke-width="2"/>
</svg>
