<svg width="429" height="423" viewBox="0 0 429 423" fill="none" xmlns="http://www.w3.org/2000/svg">
<path d="M194.363 227.843C194.215 227.843 194.082 227.784 193.978 227.68L185.508 219.21C185.286 218.988 185.286 218.647 185.508 218.425C185.73 218.203 186.071 218.203 186.293 218.425L194.378 226.51L205.351 215.538V195.844L200.153 190.646C199.931 190.424 199.931 190.084 200.153 189.861C200.375 189.639 200.716 189.639 200.938 189.861L206.298 195.222C206.402 195.325 206.461 195.459 206.461 195.607V215.76C206.461 215.908 206.402 216.041 206.298 216.145L194.763 227.695C194.645 227.798 194.511 227.843 194.363 227.843Z" fill="#878787"/>
<path d="M205.336 229.249C205.188 229.249 205.054 229.19 204.951 229.086C204.729 228.864 204.729 228.524 204.951 228.301L214.102 219.15V192.215L206.343 184.456C206.121 184.234 206.121 183.894 206.343 183.671C206.565 183.449 206.905 183.449 207.127 183.671L215.05 191.594C215.153 191.697 215.212 191.83 215.212 191.979V219.372C215.212 219.521 215.153 219.654 215.05 219.757L205.736 229.071C205.632 229.205 205.484 229.249 205.336 229.249Z" fill="#878787"/>
<path d="M183.391 229.25C183.243 229.25 183.11 229.19 183.006 229.087L173.129 219.21C172.907 218.988 172.907 218.647 173.129 218.425C173.352 218.203 173.692 218.203 173.914 218.425L183.791 228.302C184.013 228.524 184.013 228.865 183.791 229.087C183.672 229.205 183.539 229.25 183.391 229.25Z" fill="#878787"/>
<path d="M221.15 237.319H167.769C167.591 237.319 167.428 237.245 167.325 237.097C167.221 236.964 167.191 236.786 167.236 236.623L168.376 232.314C169.013 229.975 171.234 228.153 173.44 228.153H215.494C217.7 228.153 219.906 229.975 220.543 232.314L221.683 236.638C221.728 236.801 221.698 236.979 221.594 237.112C221.491 237.23 221.328 237.319 221.15 237.319ZM168.494 236.209H220.439L219.477 232.581C218.973 230.745 217.182 229.249 215.494 229.249H173.44C171.737 229.249 169.946 230.745 169.442 232.596L168.494 236.209Z" fill="#878787"/>
<path d="M214.487 173.78C214.339 173.78 214.206 173.721 214.102 173.617C213.88 173.395 213.88 173.054 214.102 172.832L219.744 167.191L216.886 164.333L211.229 169.989C211.007 170.211 210.667 170.211 210.444 169.989C210.222 169.767 210.222 169.426 210.444 169.204L216.486 163.163C216.59 163.059 216.723 163 216.871 163C217.019 163 217.152 163.059 217.256 163.163L220.899 166.806C221.002 166.909 221.061 167.042 221.061 167.191C221.061 167.339 221.002 167.472 220.899 167.576L214.857 173.617C214.768 173.721 214.62 173.78 214.487 173.78Z" fill="#878787"/>
<path d="M187.3 200.967C187.152 200.967 187.019 200.907 186.915 200.804L183.272 197.161C183.169 197.057 183.109 196.924 183.109 196.776C183.109 196.628 183.169 196.495 183.272 196.391L184.842 194.821C185.064 194.599 185.405 194.599 185.627 194.821C185.849 195.043 185.849 195.384 185.627 195.606L184.442 196.776L187.3 199.634L188.485 198.464C188.707 198.242 189.047 198.242 189.269 198.464C189.491 198.686 189.491 199.027 189.269 199.249L187.7 200.818C187.581 200.907 187.433 200.967 187.3 200.967Z" fill="#878787"/>
<path d="M191.609 199.737C191.461 199.737 191.328 199.678 191.224 199.574L184.502 192.852C184.279 192.63 184.279 192.289 184.502 192.067L207.631 168.938C207.853 168.715 208.194 168.715 208.416 168.938L215.138 175.66C215.242 175.764 215.301 175.897 215.301 176.045C215.301 176.193 215.242 176.327 215.138 176.43L192.009 199.56C191.891 199.678 191.757 199.737 191.609 199.737ZM185.671 192.452L191.609 198.39L213.954 176.045L208.016 170.107L185.671 192.452Z" fill="#878787"/>
<path d="M187.537 217.447H165.548C165.237 217.447 165 217.195 165 216.899V214.826C165 214.515 165.252 214.278 165.548 214.278H187.537C187.848 214.278 188.085 214.53 188.085 214.826V216.899C188.1 217.195 187.848 217.447 187.537 217.447ZM166.096 216.337H186.974V215.374H166.096V216.337Z" fill="#878787"/>
<path d="M194.467 235.868C192.809 235.868 191.446 234.52 191.446 232.847C191.446 231.189 192.794 229.841 194.467 229.841C196.125 229.841 197.473 231.189 197.473 232.847C197.473 234.52 196.125 235.868 194.467 235.868ZM194.467 230.952C193.416 230.952 192.557 231.811 192.557 232.862C192.557 233.913 193.416 234.772 194.467 234.772C195.518 234.772 196.377 233.913 196.377 232.862C196.362 231.811 195.518 230.952 194.467 230.952Z" fill="#878787"/>
<path d="M199.309 188.366C197.221 188.366 195.518 186.663 195.518 184.575C195.518 182.487 197.221 180.799 199.309 180.799C201.397 180.799 203.1 182.502 203.1 184.575C203.085 186.677 201.382 188.366 199.309 188.366ZM199.309 181.909C197.828 181.909 196.629 183.109 196.629 184.59C196.629 186.07 197.828 187.27 199.309 187.27C200.79 187.27 201.989 186.07 201.989 184.59C201.974 183.109 200.775 181.909 199.309 181.909Z" fill="#878787"/>
<path d="M362.906 243H313.402C313.177 243 313 242.822 313 242.598V218.975C313 218.75 313.177 218.573 313.402 218.573H325.444V201.402C325.444 201.177 325.621 201 325.846 201H350.45C350.675 201 350.852 201.177 350.852 201.402V218.561H362.894C363.118 218.561 363.296 218.738 363.296 218.963V242.586C363.308 242.822 363.13 243 362.906 243ZM313.815 242.184H362.504V219.376H350.462C350.237 219.376 350.06 219.199 350.06 218.975V201.815H326.259V218.975C326.259 219.199 326.082 219.376 325.858 219.376H313.815V242.184Z" fill="#878787"/>
<path d="M334.91 210.454H328.233C328.009 210.454 327.831 210.277 327.831 210.052V203.375C327.831 203.151 328.009 202.974 328.233 202.974H334.91C335.135 202.974 335.312 203.151 335.312 203.375V210.052C335.312 210.277 335.135 210.454 334.91 210.454ZM328.635 209.639H334.496V203.777H328.635V209.639Z" fill="#878787"/>
<path d="M334.91 221.327H328.233C328.009 221.327 327.831 221.149 327.831 220.925V214.248C327.831 214.023 328.009 213.846 328.233 213.846H334.91C335.135 213.846 335.312 214.023 335.312 214.248V220.925C335.312 221.149 335.135 221.327 334.91 221.327ZM328.635 220.511H334.496V214.65H328.635V220.511Z" fill="#878787"/>
<path d="M348.087 210.454H341.41C341.185 210.454 341.008 210.277 341.008 210.052V203.375C341.008 203.151 341.185 202.974 341.41 202.974H348.087C348.311 202.974 348.488 203.151 348.488 203.375V210.052C348.488 210.277 348.311 210.454 348.087 210.454ZM341.811 209.639H347.673V203.777H341.811V209.639Z" fill="#878787"/>
<path d="M348.087 221.327H341.41C341.185 221.327 341.008 221.149 341.008 220.925V214.248C341.008 214.023 341.185 213.846 341.41 213.846H348.087C348.311 213.846 348.488 214.023 348.488 214.248V220.925C348.488 221.149 348.311 221.327 348.087 221.327ZM341.811 220.511H347.673V214.65H341.811V220.511Z" fill="#878787"/>
<path d="M322.667 227.637H315.99C315.765 227.637 315.588 227.46 315.588 227.235V220.559C315.588 220.334 315.765 220.157 315.99 220.157H322.667C322.891 220.157 323.069 220.334 323.069 220.559V227.235C323.069 227.46 322.891 227.637 322.667 227.637ZM316.392 226.822H322.253V220.96H316.392V226.822Z" fill="#878787"/>
<path d="M322.667 241.109H315.99C315.765 241.109 315.588 240.932 315.588 240.707V234.03C315.588 233.806 315.765 233.628 315.99 233.628H322.667C322.891 233.628 323.069 233.806 323.069 234.03V240.707C323.069 240.932 322.891 241.109 322.667 241.109ZM316.392 240.305H322.253V234.444H316.392V240.305Z" fill="#878787"/>
<path d="M360.33 227.637H353.653C353.428 227.637 353.251 227.46 353.251 227.235V220.559C353.251 220.334 353.428 220.157 353.653 220.157H360.33C360.554 220.157 360.732 220.334 360.732 220.559V227.235C360.732 227.46 360.554 227.637 360.33 227.637ZM354.055 226.834H359.916V220.972H354.055V226.834Z" fill="#878787"/>
<path d="M360.33 241.109H353.653C353.428 241.109 353.251 240.932 353.251 240.707V234.03C353.251 233.806 353.428 233.628 353.653 233.628H360.33C360.554 233.628 360.732 233.806 360.732 234.03V240.707C360.732 240.932 360.554 241.109 360.33 241.109ZM354.055 240.305H359.916V234.444H354.055V240.305Z" fill="#878787"/>
<path d="M340.003 231.584H336.304C336.08 231.584 335.903 231.407 335.903 231.182V228.582H333.303C333.078 228.582 332.901 228.405 332.901 228.181V224.482C332.901 224.257 333.078 224.08 333.303 224.08H335.903V221.468C335.903 221.244 336.08 221.066 336.304 221.066H340.003C340.228 221.066 340.405 221.244 340.405 221.468V224.08H343.005C343.229 224.08 343.407 224.257 343.407 224.482V228.181C343.407 228.405 343.229 228.582 343.005 228.582H340.405V231.182C340.417 231.407 340.228 231.584 340.003 231.584ZM336.706 230.78H339.601V228.181C339.601 227.956 339.779 227.779 340.003 227.779H342.603V224.884H340.003C339.779 224.884 339.601 224.706 339.601 224.482V221.87H336.706V224.482C336.706 224.706 336.529 224.884 336.304 224.884H333.704V227.779H336.304C336.529 227.779 336.706 227.956 336.706 228.181V230.78Z" fill="#878787"/>
<path d="M349.15 234.432H327.158C326.933 234.432 326.756 234.255 326.756 234.031V232.341C326.756 232.116 326.933 231.939 327.158 231.939H349.15C349.375 231.939 349.552 232.116 349.552 232.341V234.031C349.552 234.255 349.375 234.432 349.15 234.432ZM327.559 233.629H348.737V232.754H327.559V233.629Z" fill="#878787"/>
<path d="M332.641 242.999H330.632C330.407 242.999 330.23 242.822 330.23 242.598V235.353C330.23 235.129 330.407 234.952 330.632 234.952C330.857 234.952 331.034 235.129 331.034 235.353V242.196H332.227V235.353C332.227 235.129 332.405 234.952 332.629 234.952C332.854 234.952 333.031 235.129 333.031 235.353V242.598C333.055 242.822 332.866 242.999 332.641 242.999Z" fill="#878787"/>
<path d="M345.676 242.999H343.667C343.442 242.999 343.265 242.822 343.265 242.597V235.353C343.265 235.128 343.442 234.951 343.667 234.951C343.891 234.951 344.069 235.128 344.069 235.353V242.195H345.262V235.353C345.262 235.128 345.44 234.951 345.664 234.951C345.889 234.951 346.066 235.128 346.066 235.353V242.597C346.078 242.822 345.9 242.999 345.676 242.999Z" fill="#878787"/>
<path d="M325.858 232.754C325.633 232.754 325.456 232.577 325.456 232.353V220.559C325.456 220.334 325.633 220.157 325.858 220.157C326.082 220.157 326.259 220.334 326.259 220.559V232.353C326.259 232.565 326.082 232.754 325.858 232.754Z" fill="#878787"/>
<path d="M325.858 241.109C325.633 241.109 325.456 240.932 325.456 240.707V234.03C325.456 233.806 325.633 233.628 325.858 233.628C326.082 233.628 326.259 233.806 326.259 234.03V240.707C326.259 240.932 326.082 241.109 325.858 241.109Z" fill="#878787"/>
<path d="M350.462 232.754C350.237 232.754 350.06 232.577 350.06 232.353V220.559C350.06 220.334 350.237 220.157 350.462 220.157C350.686 220.157 350.864 220.334 350.864 220.559V232.353C350.864 232.565 350.686 232.754 350.462 232.754Z" fill="#878787"/>
<path d="M350.462 241.109C350.237 241.109 350.06 240.932 350.06 240.707V234.03C350.06 233.806 350.237 233.628 350.462 233.628C350.686 233.628 350.864 233.806 350.864 234.03V240.707C350.864 240.932 350.686 241.109 350.462 241.109Z" fill="#878787"/>
<path d="M91.0308 312.738H98.1897V305.948H91.0308V312.738ZM96.8564 307.282V311.405H92.3846V307.282H96.8564Z" fill="#878787"/>
<path d="M139.359 264.226L139.236 264.103L117.677 284.082L117.472 284.287V291.056H85V328.082H130.005V312.82C130.005 307.713 134.149 303.569 139.256 303.569C144.364 303.569 148.508 307.713 148.508 312.82V328.082H161V284.287L139.359 264.226ZM128.672 312.8V326.728H86.3333V292.39H118.805V284.862L139.236 265.928L159.667 284.862V326.728H149.841V312.8C149.841 306.974 145.103 302.215 139.256 302.215C133.41 302.215 128.672 306.974 128.672 312.8Z" fill="#878787"/>
<path d="M91.0308 321.435H98.1897V314.646H91.0308V321.435ZM96.8564 315.979V320.102H92.3846V315.979H96.8564Z" fill="#878787"/>
<path d="M109.021 321.435H116.179V314.646H109.021V321.435ZM114.826 315.979V320.102H110.333V315.979H114.826Z" fill="#878787"/>
<path d="M91.0308 304.451H98.1897V297.662H91.0308V304.451ZM96.8564 298.995V303.118H92.3846V298.995H96.8564Z" fill="#878787"/>
<path d="M109.021 312.738H116.179V305.948H109.021V312.738ZM114.826 307.282V311.405H110.333V307.282H114.826Z" fill="#878787"/>
<path d="M100.015 312.738H107.174V305.948H100.015V312.738ZM105.841 307.282V311.405H101.348V307.282H105.841Z" fill="#878787"/>
<path d="M109.021 304.451H116.179V297.662H109.021V304.451ZM114.826 298.995V303.118H110.333V298.995H114.826Z" fill="#878787"/>
<path d="M100.015 321.435H107.174V314.646H100.015V321.435ZM105.841 315.979V320.102H101.348V315.979H105.841Z" fill="#878787"/>
<path d="M100.015 304.451H107.174V297.662H100.015V304.451ZM105.841 298.995V303.118H101.348V298.995H105.841Z" fill="#878787"/>
<path d="M135.79 295.487H142.744V289.456H148.734V282.502H142.744V276.472H135.79V282.502H129.718V289.456H135.79V295.487ZM137.123 283.836V277.805H141.39V283.836H147.38V288.123H141.39V294.154H137.123V288.123H131.052V283.836H137.123Z" fill="#E85252"/>
<path d="M275.144 324.38H245.885C240.983 324.38 237 320.397 237 315.496V299.059C237 294.158 240.983 290.175 245.885 290.175H275.144C280.046 290.175 284.029 294.158 284.029 299.059V315.481C284.029 320.382 280.046 324.38 275.144 324.38ZM245.885 290.915C241.398 290.915 237.74 294.573 237.74 299.059V315.481C237.74 319.968 241.398 323.625 245.885 323.625H275.144C279.631 323.625 283.288 319.968 283.288 315.481V299.059C283.288 294.573 279.631 290.915 275.144 290.915H245.885Z" fill="#878787"/>
<path d="M242.034 304.272C241.827 304.272 241.664 304.109 241.664 303.902V301.118C241.664 297.357 244.729 294.292 248.491 294.292C248.698 294.292 248.861 294.454 248.861 294.662C248.861 294.869 248.698 295.032 248.491 295.032C245.144 295.032 242.419 297.756 242.419 301.103V303.887C242.405 304.094 242.242 304.272 242.034 304.272Z" fill="#878787"/>
<path d="M266.852 290.722C266.645 290.722 266.482 290.559 266.482 290.352V288.279C266.482 287.154 265.564 286.235 264.438 286.235C264.231 286.235 264.068 286.073 264.068 285.865C264.068 285.658 264.231 285.495 264.438 285.495C265.978 285.495 267.222 286.754 267.222 288.294V290.367C267.222 290.544 267.059 290.722 266.852 290.722Z" fill="#878787"/>
<path d="M253.718 290.723C253.511 290.723 253.348 290.56 253.348 290.353V288.28C253.348 286.74 254.606 285.481 256.131 285.481C256.339 285.481 256.502 285.644 256.502 285.851C256.502 286.058 256.339 286.221 256.131 286.221C255.006 286.221 254.088 287.139 254.088 288.265V290.338C254.103 290.545 253.925 290.723 253.718 290.723Z" fill="#878787"/>
<path d="M260.514 319.257C253.91 319.257 248.535 313.882 248.535 307.277C248.535 307.07 248.698 306.907 248.905 306.907C249.113 306.907 249.276 307.07 249.276 307.277C249.276 313.467 254.31 318.516 260.5 318.516C266.689 318.516 271.739 313.482 271.739 307.277C271.739 301.088 266.704 296.053 260.5 296.053C260.292 296.053 260.129 295.89 260.129 295.683C260.129 295.476 260.292 295.313 260.5 295.313C267.104 295.313 272.479 300.688 272.479 307.292C272.494 313.882 267.119 319.257 260.514 319.257Z" fill="#878787"/>
<path d="M251.704 300.096C251.615 300.096 251.526 300.066 251.452 300.007C251.289 299.874 251.274 299.637 251.408 299.474C252.844 297.801 254.71 296.542 256.812 295.861C257.005 295.802 257.227 295.905 257.286 296.098C257.345 296.29 257.242 296.512 257.049 296.572C255.095 297.208 253.333 298.378 251.985 299.948C251.911 300.051 251.807 300.096 251.704 300.096Z" fill="#878787"/>
<path d="M249.275 304.73C249.246 304.73 249.216 304.73 249.187 304.716C248.979 304.656 248.861 304.464 248.92 304.257C249.157 303.324 249.527 302.406 249.986 301.562C250.09 301.384 250.312 301.31 250.49 301.414C250.667 301.517 250.741 301.739 250.638 301.917C250.208 302.717 249.868 303.561 249.646 304.449C249.601 304.612 249.438 304.73 249.275 304.73Z" fill="#878787"/>
<path d="M263.269 314.874H257.775C257.568 314.874 257.405 314.711 257.405 314.503V310.416H253.303C253.096 310.416 252.933 310.254 252.933 310.046V304.538C252.933 304.331 253.096 304.168 253.303 304.168H257.405V300.066C257.405 299.859 257.568 299.696 257.775 299.696H263.269C263.476 299.696 263.639 299.859 263.639 300.066V304.168H267.74C267.948 304.168 268.111 304.331 268.111 304.538V310.046C268.111 310.254 267.948 310.416 267.74 310.416H263.639V314.503C263.639 314.696 263.476 314.874 263.269 314.874ZM258.145 314.118H262.898V310.031C262.898 309.824 263.061 309.661 263.269 309.661H267.37V304.893H263.269C263.061 304.893 262.898 304.73 262.898 304.523V300.421H258.145V304.523C258.145 304.73 257.982 304.893 257.775 304.893H253.673V309.646H257.775C257.982 309.646 258.145 309.809 258.145 310.017V314.118Z" fill="#E85252"/>
<path d="M264.438 284.74H256.131C255.924 284.74 255.761 284.577 255.761 284.37C255.761 284.163 255.924 284 256.131 284H264.438C264.646 284 264.809 284.163 264.809 284.37C264.809 284.577 264.646 284.74 264.438 284.74Z" fill="#878787"/>
<path d="M264.438 287.583H256.131C255.924 287.583 255.761 287.42 255.761 287.213C255.761 287.006 255.924 286.843 256.131 286.843H264.438C264.646 286.843 264.809 287.006 264.809 287.213C264.809 287.42 264.646 287.583 264.438 287.583Z" fill="#878787"/>
<path d="M234.257 410.195H232.495C232.243 410.195 232.05 410.002 232.05 409.78V407.707H193.951V409.78C193.951 410.017 193.758 410.195 193.506 410.195H191.759C187.48 410.195 184 406.922 184 402.894V376.3C184 372.272 187.48 369 191.759 369H234.257C238.536 369 242.016 372.272 242.016 376.3V402.894C242.016 406.922 238.536 410.195 234.257 410.195ZM232.939 409.365H234.257C238.048 409.365 241.128 406.463 241.128 402.909V376.315C241.128 372.746 238.048 369.859 234.257 369.859H191.759C187.968 369.859 184.888 372.761 184.888 376.315V402.909C184.888 406.478 187.968 409.365 191.759 409.365H193.062V407.292C193.062 407.055 193.255 406.878 193.506 406.878H232.495C232.746 406.878 232.939 407.07 232.939 407.292V409.365ZM234.257 404.464H191.759C190.841 404.464 190.101 403.768 190.101 402.894V393.181C190.101 393.166 190.101 393.136 190.101 393.122V391.981V376.3C190.101 375.441 190.841 374.731 191.759 374.731H234.257C235.175 374.731 235.915 375.426 235.915 376.3V390.604C235.915 390.619 235.915 390.634 235.915 390.649V402.894C235.915 403.768 235.175 404.464 234.257 404.464ZM190.989 393.077C190.989 393.092 190.989 393.107 190.989 393.136V402.909C190.989 403.309 191.33 403.635 191.759 403.635H234.257C234.686 403.635 235.027 403.309 235.027 402.909V390.708C235.027 390.693 235.027 390.678 235.027 390.663V376.315C235.027 375.915 234.686 375.589 234.257 375.589H191.759C191.33 375.589 190.989 375.915 190.989 376.315V393.077ZM238.536 390.989C237.396 390.989 236.478 390.116 236.478 389.064C236.478 388.013 237.396 387.139 238.536 387.139C239.676 387.139 240.594 387.998 240.594 389.064C240.594 390.13 239.662 390.989 238.536 390.989ZM238.536 387.954C237.899 387.954 237.366 388.442 237.366 389.049C237.366 389.657 237.885 390.145 238.536 390.145C239.173 390.145 239.706 389.657 239.706 389.049C239.706 388.442 239.173 387.954 238.536 387.954ZM187.48 390.989C186.34 390.989 185.422 390.116 185.422 389.064C185.422 388.013 186.34 387.139 187.48 387.139C188.62 387.139 189.538 387.998 189.538 389.064C189.538 390.13 188.62 390.989 187.48 390.989ZM187.48 387.954C186.843 387.954 186.31 388.442 186.31 389.049C186.31 389.657 186.828 390.145 187.48 390.145C188.116 390.145 188.65 389.657 188.65 389.049C188.65 388.442 188.131 387.954 187.48 387.954ZM238.536 384.133C237.396 384.133 236.478 383.274 236.478 382.208C236.478 381.142 237.396 380.283 238.536 380.283C239.676 380.283 240.594 381.157 240.594 382.208C240.594 383.26 239.662 384.133 238.536 384.133ZM238.536 381.113C237.899 381.113 237.366 381.601 237.366 382.208C237.366 382.815 237.885 383.304 238.536 383.304C239.173 383.304 239.706 382.815 239.706 382.208C239.706 381.601 239.173 381.113 238.536 381.113ZM187.48 384.133C186.34 384.133 185.422 383.274 185.422 382.208C185.422 381.142 186.34 380.283 187.48 380.283C188.62 380.283 189.538 381.157 189.538 382.208C189.538 383.26 188.62 384.133 187.48 384.133ZM187.48 381.113C186.843 381.113 186.31 381.601 186.31 382.208C186.31 382.815 186.828 383.304 187.48 383.304C188.116 383.304 188.65 382.815 188.65 382.208C188.65 381.601 188.131 381.113 187.48 381.113Z" fill="#878787"/>
<path d="M224.972 398.882C224.795 398.882 224.632 398.778 224.558 398.615L222.351 393.433H218.901C218.723 393.433 218.561 393.329 218.501 393.181L215.94 387.761L211.216 398.556C211.157 398.704 211.009 398.793 210.846 398.808C210.683 398.822 210.52 398.748 210.431 398.615L207.129 393.684H203.738C203.575 393.684 203.412 393.595 203.338 393.447L200.94 388.842L198.866 393.284C198.792 393.433 198.63 393.536 198.452 393.536L190.559 393.507C190.441 393.507 190.323 393.462 190.249 393.388C190.16 393.314 190.115 393.196 190.115 393.092L190.13 390.797C190.13 390.56 190.337 390.382 190.574 390.382L196.571 390.397L200.392 382.223C200.466 382.075 200.614 381.971 200.791 381.971C200.969 381.971 201.132 382.06 201.206 382.208L205.545 390.56H208.728C208.876 390.56 209.024 390.634 209.099 390.752L210.268 392.5L215.436 380.698C215.51 380.55 215.658 380.446 215.836 380.446C216.014 380.446 216.177 380.55 216.236 380.698L220.782 390.293H224.306C224.484 390.293 224.646 390.397 224.72 390.56L224.75 390.619L224.809 390.471C224.869 390.308 225.046 390.19 225.224 390.19L235.486 390.204C235.604 390.204 235.722 390.249 235.797 390.323C235.885 390.397 235.93 390.515 235.93 390.619V392.914C235.93 393.151 235.722 393.329 235.486 393.329L227.297 393.314L225.402 398.571C225.328 398.763 225.165 398.882 224.972 398.882ZM203.99 392.885H207.351C207.499 392.885 207.647 392.959 207.721 393.077L210.698 397.519L215.495 386.562C215.569 386.414 215.717 386.31 215.895 386.31C216.073 386.31 216.236 386.414 216.295 386.562L219.168 392.618H222.633C222.81 392.618 222.973 392.722 223.047 392.885L224.913 397.268L226.527 392.796C226.586 392.633 226.764 392.514 226.942 392.514L234.997 392.529V391.078L225.505 391.063L225.165 391.996C225.105 392.159 224.943 392.278 224.75 392.278C224.572 392.263 224.395 392.174 224.321 392.011L223.965 391.167H220.441C220.263 391.167 220.101 391.063 220.041 390.915L215.806 381.971L210.713 393.625C210.653 393.773 210.505 393.862 210.342 393.877C210.179 393.892 210.017 393.818 209.928 393.684L208.432 391.448H205.219C205.056 391.448 204.893 391.359 204.819 391.211L200.777 383.437L197.223 391.048C197.149 391.197 196.986 391.3 196.808 391.3L190.959 391.285V392.737L198.111 392.751L200.451 387.732C200.525 387.584 200.673 387.48 200.851 387.48C201.028 387.48 201.176 387.569 201.265 387.717L203.99 392.885Z" fill="#FF5555"/>
<path d="M230.437 414.77H195.58C194.203 414.77 193.077 413.719 193.077 412.416V407.277C193.077 407.04 193.27 406.863 193.521 406.863H232.495C232.747 406.863 232.939 407.055 232.939 407.277V412.416C232.939 413.719 231.814 414.77 230.437 414.77ZM193.951 407.692V412.416C193.951 413.26 194.676 413.926 195.565 413.926H230.422C231.31 413.926 232.036 413.245 232.036 412.416V407.692H193.951Z" fill="#878787"/>
<path d="M428.338 392.568C428.338 389.962 426.22 387.844 423.614 387.844C421.008 387.844 418.891 389.962 418.891 392.568C418.891 394.893 420.564 396.832 422.859 397.217L423.126 397.262V406.857C423.126 414.972 416.521 421.591 408.392 421.591C400.263 421.591 393.658 414.986 393.658 406.857V397.277L393.955 397.262C402.854 396.966 409.843 389.754 409.843 380.855V366.921C409.843 363.086 406.985 359.828 403.18 359.325L402.972 359.295L402.928 359.088C402.617 357.859 401.536 357 400.277 357C398.93 357 398.086 358.051 398.086 359.739C398.086 361.427 398.93 362.479 400.277 362.479C401.477 362.479 402.513 361.709 402.884 360.554L402.958 360.302L403.224 360.347C406.482 360.865 408.866 363.619 408.866 366.921V380.381C408.866 385.12 401.743 390.894 393.422 390.894C385.1 390.894 377.977 385.105 377.977 380.381V366.921C377.977 363.663 380.421 360.835 383.649 360.347L383.915 360.302L383.989 360.554C384.345 361.709 385.396 362.479 386.595 362.479C387.943 362.479 388.787 361.427 388.787 359.739C388.787 358.051 387.943 357 386.595 357C385.337 357 384.256 357.859 383.945 359.088L383.9 359.295L383.693 359.325C379.873 359.813 377 363.086 377 366.921V380.855C377 389.503 383.767 396.699 392.415 397.247L392.711 397.262V406.857C392.711 415.519 399.759 422.583 408.436 422.583C417.099 422.583 424.162 415.534 424.162 406.857V397.262L424.429 397.217C426.665 396.847 428.338 394.893 428.338 392.568ZM401.877 360.421C401.61 361.072 400.973 361.502 400.263 361.502C399.463 361.502 399.063 360.924 399.063 359.754C399.063 358.57 399.448 358.007 400.263 358.007C400.973 358.007 401.595 358.422 401.877 359.088L401.951 359.266L401.817 359.414C401.729 359.502 401.669 359.636 401.669 359.754C401.669 359.887 401.714 360.006 401.817 360.095L401.966 360.243L401.877 360.421ZM384.952 359.117C385.218 358.436 385.855 358.007 386.566 358.007C387.365 358.007 387.765 358.584 387.765 359.754C387.765 360.924 387.38 361.502 386.566 361.502C385.84 361.502 385.203 361.057 384.937 360.391L384.863 360.213L384.981 360.08C385.041 360.006 385.115 359.902 385.115 359.754C385.115 359.606 385.041 359.502 384.981 359.443L384.863 359.295L384.952 359.117ZM378.91 386.141L378.347 384.601L379.443 385.83C382.035 388.762 387.054 391.901 393.407 391.901C399.774 391.901 404.794 388.762 407.385 385.83L408.481 384.601L407.918 386.141C405.697 392.227 399.878 396.299 393.422 396.299C386.951 396.299 381.131 392.212 378.91 386.141ZM423.614 396.299C421.556 396.299 419.883 394.626 419.883 392.568C419.883 390.509 421.556 388.836 423.614 388.836C425.672 388.836 427.346 390.509 427.346 392.568C427.346 394.626 425.672 396.299 423.614 396.299Z" fill="#E85252"/>
<path d="M423.614 390.213C422.311 390.213 421.26 391.265 421.26 392.568C421.26 393.871 422.326 394.937 423.614 394.937C424.917 394.937 425.983 393.871 425.983 392.568C425.969 391.28 424.917 390.213 423.614 390.213ZM423.614 393.945C422.859 393.945 422.252 393.323 422.252 392.568C422.252 391.813 422.859 391.205 423.614 391.205C424.369 391.205 424.991 391.813 424.991 392.568C424.976 393.323 424.369 393.945 423.614 393.945Z" fill="#E85252"/>
<path d="M63.0156 234.187C63.0156 235.845 64.3631 237.193 66.0216 237.193C67.68 237.193 69.0275 235.845 69.0275 234.187C69.0275 232.528 67.68 231.181 66.0216 231.181C64.3631 231.181 63.0156 232.528 63.0156 234.187ZM66.0216 232.054C67.2062 232.054 68.1538 233.017 68.1538 234.187C68.1538 235.356 67.1914 236.319 66.0216 236.319C64.8518 236.319 63.8893 235.356 63.8893 234.187C63.8893 233.017 64.8518 232.054 66.0216 232.054Z" fill="#878787"/>
<path d="M93.6378 216.521C93.5194 216.507 93.3861 216.536 93.2973 216.625C93.2084 216.714 93.1492 216.832 93.1492 216.951V221.26C93.1492 221.497 93.3417 221.689 93.5786 221.689H93.7859C97.1028 221.689 99.7978 224.355 99.857 227.657H98.8945C98.8945 227.346 98.8501 227.035 98.7909 226.739C98.7168 226.413 98.628 226.087 98.4947 225.776C98.243 225.169 97.8728 224.621 97.399 224.162C97.162 223.925 96.9103 223.718 96.6438 223.54C96.3772 223.362 96.0811 223.2 95.7701 223.066C95.1334 222.8 94.4671 222.666 93.7859 222.666H91.6832C91.0021 222.666 90.3358 222.8 89.699 223.066C89.4029 223.2 89.1067 223.348 88.8402 223.54C88.5737 223.718 88.3219 223.925 88.085 224.162C87.6112 224.636 87.2558 225.169 86.9893 225.776C86.856 226.087 86.7523 226.398 86.6931 226.739C86.6339 227.035 86.5895 227.346 86.5895 227.657H85.627C85.6862 224.355 88.3812 221.689 91.6981 221.689H91.9054C92.1423 221.689 92.3348 221.497 92.3348 221.26V216.803C92.3348 216.566 92.1423 216.373 91.9054 216.373L91.6981 216.358C91.5796 216.358 91.4611 216.344 91.3427 216.344H87.0337V212.479C87.9369 211.798 88.6181 211.102 89.0179 210.421C89.3733 209.828 89.8175 208.703 90.2025 205.342C91.9646 204.779 93.2676 202.691 93.6971 199.67C93.9784 197.731 93.6082 196.013 92.6902 194.947C92.2459 194.428 91.6832 194.088 91.0613 193.925C91.3131 192.548 91.4315 191.156 91.4315 189.705V186.714C91.4315 186.699 91.4315 186.669 91.4315 186.655C91.3723 181.324 87.0041 177 81.6733 177H75.01C69.6348 177 65.2518 181.383 65.2518 186.758V189.705C65.2518 191.156 65.3702 192.548 65.622 193.925C64.9852 194.088 64.4374 194.443 63.9931 194.962C63.0751 196.028 62.7049 197.745 62.9862 199.685C63.4156 202.706 64.7039 204.794 66.4808 205.356C66.8658 208.718 67.3248 209.843 67.6654 210.435C68.0652 211.117 68.7464 211.813 69.6348 212.494V216.358H66.2291C66.0366 216.358 65.8589 216.492 65.8145 216.669C64.0672 222.889 64.852 228.353 65.2666 230.411C65.311 230.633 65.5183 230.766 65.7404 230.751L65.8885 230.737C65.9477 230.722 66.007 230.722 66.0662 230.722C68.0208 230.722 69.6052 232.306 69.6052 234.261C69.6052 236.215 68.0208 237.8 66.0662 237.8C64.1116 237.8 62.5272 236.215 62.5272 234.261C62.5272 232.987 63.238 231.803 64.3781 231.166C64.541 231.077 64.6299 230.885 64.6002 230.692C64.2449 229.123 63.238 223.481 65.0149 216.921C65.0445 216.788 65.0149 216.64 64.9408 216.536C64.852 216.433 64.7187 216.373 64.5854 216.373C56.2636 216.743 50 223.007 50 230.974V241.591C50 241.827 50.1925 242.02 50.4294 242.02H106.283C106.52 242.02 106.713 241.827 106.713 241.591V230.974C106.683 223.511 101.323 217.558 93.6378 216.521ZM105.81 241.161H50.8292V230.974C50.8292 223.673 56.4413 217.884 63.9931 217.277C62.4828 223.392 63.2676 228.664 63.6526 230.559C62.3939 231.373 61.6387 232.765 61.6387 234.246C61.6387 236.674 63.6229 238.659 66.0514 238.659C68.4798 238.659 70.464 236.674 70.464 234.246C70.464 231.803 68.4798 229.833 66.0514 229.833H66.0366C65.6368 227.642 65.0593 222.755 66.5548 217.203H70.0346C70.2715 217.203 70.464 217.01 70.464 216.773V212.257C70.464 212.124 70.39 211.99 70.2863 211.901C69.3979 211.25 68.7315 210.598 68.3614 209.976C68.1985 209.695 67.6802 208.821 67.2508 204.957C67.236 204.764 67.0879 204.616 66.9102 204.572C65.3554 204.231 64.1856 202.365 63.7858 199.537C63.5341 197.864 63.8303 196.398 64.5854 195.509C65 195.036 65.5035 194.754 66.1106 194.695C66.2291 194.68 66.3475 194.621 66.4068 194.517C66.4808 194.414 66.5104 194.295 66.4808 194.177C66.1847 192.711 66.0514 191.245 66.0514 189.69V186.743C66.0514 181.842 70.0346 177.859 74.9359 177.859H81.5993C86.471 177.859 90.4542 181.827 90.4838 186.684C90.4838 186.699 90.4838 186.714 90.4838 186.729V189.675C90.4838 191.23 90.3506 192.696 90.0544 194.162C90.0248 194.28 90.0544 194.399 90.1285 194.503C90.2025 194.606 90.3061 194.665 90.4394 194.68C91.0465 194.754 91.5648 195.021 91.9646 195.495C92.7198 196.368 93.0159 197.834 92.779 199.522C92.3792 202.336 91.2094 204.216 89.6546 204.542C89.4769 204.586 89.3288 204.735 89.314 204.927C88.8994 208.792 88.3812 209.665 88.2035 209.947C87.8333 210.569 87.1818 211.235 86.2785 211.872C86.16 211.961 86.1008 212.079 86.1008 212.227V216.743C86.1008 216.862 86.1452 216.966 86.2341 217.054C86.3229 217.143 86.4266 217.188 86.545 217.188H91.2834C91.3131 217.188 91.3575 217.188 91.3871 217.188V220.786C87.6704 220.904 84.6793 223.97 84.6793 227.731V228.056C84.6793 228.293 84.8718 228.486 85.1087 228.486H86.9448C87.1818 228.486 87.3742 228.293 87.3742 228.056V227.731C87.3742 227.449 87.4039 227.153 87.4631 226.887C87.5223 226.62 87.5964 226.354 87.7148 226.087C87.9221 225.584 88.2331 225.125 88.6181 224.74C88.8106 224.547 89.0179 224.369 89.24 224.221C89.4621 224.073 89.7138 223.94 89.9508 223.836C90.469 223.614 91.0317 223.511 91.5944 223.511H93.6971C94.2598 223.511 94.8224 223.629 95.3407 223.836C95.5924 223.94 95.8294 224.073 96.0515 224.221C96.2736 224.369 96.4809 224.547 96.6734 224.74C97.0584 225.125 97.3693 225.584 97.5766 226.087C97.6803 226.339 97.7691 226.605 97.8284 226.872C97.8876 227.153 97.9172 227.435 97.9172 227.716V228.042C97.9172 228.279 98.1097 228.471 98.3466 228.471H100.183C100.42 228.471 100.612 228.279 100.612 228.042V227.716C100.612 223.97 97.6211 220.904 93.9044 220.771V217.41C100.879 218.58 105.706 224.073 105.706 230.929V241.161H105.81Z" fill="#878787"/>
<path d="M87.552 209.562C87.9814 208.837 88.3516 206.971 88.6181 204.157L88.6625 203.772L89.2993 203.832C90.5431 203.817 91.6389 202.055 92.0238 199.449C92.2312 197.997 92.009 196.768 91.4019 196.072C91.1058 195.732 90.706 195.554 90.1581 195.539C89.9656 195.51 89.7731 195.658 89.7139 195.85C89.5214 196.502 89.3289 197.035 89.1512 197.464C88.8698 196.013 88.4404 193.718 88.2479 192.726C88.1443 192.222 88.0258 191.586 87.8925 190.89C87.8481 190.682 87.6704 190.534 87.4631 190.534C84.087 190.505 80.8145 190.253 78.2232 189.809C73.2479 188.95 70.7602 187.573 69.9162 187.025C69.7977 186.936 69.6348 186.936 69.4868 186.995C69.3535 187.055 69.2498 187.188 69.235 187.336C69.0129 189.276 68.6279 191.26 68.3762 192.578L68.3466 192.741C68.1541 193.733 67.7247 196.013 67.4581 197.464C67.2804 197.035 67.0879 196.502 66.8954 195.865C66.8362 195.673 66.6585 195.525 66.4512 195.554C65.9033 195.584 65.5035 195.761 65.2074 196.087C64.6003 196.783 64.3782 198.012 64.5855 199.449C64.9557 202.069 66.0958 203.832 67.3989 203.832C67.4433 203.832 67.5025 203.817 67.547 203.802L67.9468 203.772L67.9912 204.172C68.2577 206.986 68.6279 208.851 69.0573 209.577C70.0642 211.28 73.8402 213.649 78.2973 213.649C82.7691 213.634 86.5451 211.265 87.552 209.562ZM69.8421 209.118C69.6793 208.837 69.2498 207.785 68.8945 204.068L68.8204 203.254C68.8056 203.032 68.6131 202.854 68.391 202.854C68.3762 202.854 68.3762 202.854 68.3614 202.854L67.547 202.913C67.4877 202.913 67.4433 202.928 67.3989 202.928C66.7178 202.854 65.8293 201.596 65.5035 199.3C65.3407 198.145 65.4887 197.109 65.9181 196.635C65.9922 196.546 66.0958 196.487 66.2143 196.443C66.7474 198.116 67.2952 199.019 67.31 199.064C67.3989 199.212 67.5766 199.3 67.7543 199.256C67.932 199.226 68.0652 199.078 68.1097 198.901C68.1097 198.901 68.9537 194.384 69.2498 192.874L69.2795 192.711C69.5016 191.541 69.8421 189.824 70.0643 188.076C71.2933 188.772 73.8254 189.898 78.1047 190.638C80.6368 191.067 83.8205 191.334 87.1226 191.364C87.2262 191.926 87.3298 192.43 87.4039 192.874C87.7 194.384 88.5441 198.901 88.5441 198.901C88.5737 199.078 88.7218 199.212 88.8995 199.256C89.0771 199.286 89.2548 199.212 89.3437 199.064C89.3733 199.019 89.9212 198.131 90.4394 196.443C90.5727 196.487 90.6616 196.546 90.7356 196.635C91.1502 197.124 91.3131 198.145 91.1502 199.315C90.8244 201.551 89.936 202.943 89.3289 202.958L88.2924 202.869C88.0406 202.854 87.8481 203.017 87.8185 203.269L87.7445 204.083C87.3891 207.8 86.9597 208.851 86.7968 209.133C85.8935 210.658 82.2361 212.775 78.3121 212.775C74.4029 212.761 70.7454 210.643 69.8421 209.118Z" fill="#878787"/>
<path d="M100.02 228.605H98.7171C98.4801 228.605 98.2876 228.797 98.2876 229.034V233.092C98.2876 234.809 97.3103 236.364 95.7704 237.119C95.4298 237.001 95.0596 236.956 94.6894 237.03C94.1267 237.119 93.6381 237.415 93.3419 237.83C93.105 238.156 93.0162 238.556 93.0754 238.926C93.1346 239.296 93.3567 239.637 93.6825 239.874C94.0083 240.11 94.4081 240.229 94.8375 240.229C94.9559 240.229 95.0892 240.214 95.2077 240.199C95.9036 240.081 96.4959 239.637 96.718 239.074C98.9836 237.949 100.45 235.624 100.45 233.092V229.034C100.45 228.797 100.257 228.605 100.02 228.605ZM99.5759 233.092C99.5759 235.342 98.2432 237.415 96.185 238.363C96.0665 238.422 95.9777 238.526 95.9481 238.659C95.874 238.985 95.5038 239.266 95.0744 239.34C94.7486 239.4 94.4229 239.326 94.186 239.163C94.0823 239.089 93.9638 238.97 93.9342 238.778C93.9046 238.6 93.9787 238.437 94.0527 238.334C94.2156 238.111 94.4969 237.934 94.8227 237.889C94.8967 237.875 94.9708 237.874 95.0448 237.874C95.2373 237.874 95.415 237.919 95.5779 237.993C95.6963 238.052 95.8296 238.052 95.9481 238.008C97.8878 237.149 99.1465 235.224 99.1465 233.106V229.493H99.5759V233.092Z" fill="#878787"/>
<path d="M85.3457 213.294C85.3457 213.145 85.2716 212.997 85.1383 212.923C85.0051 212.849 84.8422 212.834 84.7089 212.909C82.7247 213.915 80.4592 214.463 78.3269 214.463C76.1946 214.463 73.9142 213.915 71.9448 212.909C71.8116 212.834 71.6487 212.849 71.5154 212.923C71.3821 212.997 71.3081 213.145 71.3081 213.294V216.773C71.3081 220.86 74.3881 224.059 78.3269 224.059C82.2657 224.059 85.3457 220.86 85.3457 216.773V213.294ZM84.472 216.788C84.472 220.386 81.777 223.2 78.3269 223.2C74.8767 223.2 72.1817 220.386 72.1817 216.788V213.99C74.1215 214.863 76.2834 215.337 78.3269 215.337C80.3703 215.337 82.5322 214.863 84.472 213.99V216.788Z" fill="#878787"/>
<path d="M90.7802 237.03C90.41 236.971 90.025 237.001 89.6992 237.119C88.1592 236.364 87.1819 234.795 87.1819 233.092V229.034C87.1819 228.797 86.9894 228.605 86.7525 228.605H85.4494C85.2125 228.605 85.02 228.797 85.02 229.034V233.092C85.02 235.624 86.4712 237.949 88.7515 239.074C88.9884 239.637 89.5659 240.081 90.2619 240.199C90.3952 240.214 90.5136 240.229 90.6321 240.229C91.0615 240.229 91.4613 240.11 91.7871 239.874C92.1128 239.637 92.335 239.296 92.3942 238.926C92.4534 238.556 92.3646 238.156 92.1276 237.83C91.8315 237.415 91.3429 237.134 90.7802 237.03ZM91.2836 239.178C91.0615 239.34 90.7209 239.4 90.41 239.34C89.9658 239.266 89.6104 238.985 89.5363 238.659C89.5067 238.526 89.4179 238.422 89.2994 238.363C87.2412 237.415 85.9085 235.357 85.9085 233.092V229.479H86.3379V233.092C86.3379 235.209 87.5965 237.134 89.5363 237.993C89.6548 238.052 89.7881 238.037 89.9065 237.978C90.1286 237.875 90.3952 237.83 90.6617 237.874C90.9875 237.934 91.2688 238.097 91.4317 238.319C91.5057 238.422 91.5798 238.57 91.5502 238.763C91.5057 238.97 91.3725 239.104 91.2836 239.178Z" fill="#878787"/>
<path d="M68.6437 95.061C65.3564 95.061 62.2172 96.0679 59.5667 97.9929C56.9161 96.0827 53.7769 95.061 50.4897 95.061C41.9161 95.061 34.9565 102.035 34.9565 110.594C34.9565 122.736 58.2932 136.907 59.2853 137.499C59.3742 137.544 59.463 137.573 59.5667 137.573C59.6703 137.573 59.774 137.544 59.8628 137.485C60.8549 136.878 84.1768 122.573 84.1768 110.579C84.1768 102.035 77.2173 95.061 68.6437 95.061ZM68.6437 96.1716C76.5954 96.1716 83.0811 102.642 83.0811 110.609C83.0811 121.448 62.3653 134.656 59.5667 136.389C56.7681 134.656 36.0523 121.404 36.0523 110.609C36.0523 102.657 42.5232 96.1716 50.4897 96.1716C53.6733 96.1716 56.694 97.1933 59.2261 99.1183C59.4186 99.2664 59.7 99.2664 59.8925 99.1183C62.4394 97.1933 65.4601 96.1716 68.6437 96.1716Z" fill="#FF5555"/>
<path d="M41.8571 106.7C41.9311 106.744 42.02 106.759 42.1088 106.759C42.3161 106.759 42.4938 106.641 42.5975 106.463C44.1375 103.516 47.1582 101.695 50.4751 101.695C50.7861 101.695 51.023 101.443 51.023 101.147C51.023 100.836 50.7713 100.599 50.4751 100.599C46.7436 100.599 43.3527 102.657 41.6202 105.959C41.5462 106.093 41.5313 106.241 41.5758 106.374C41.635 106.522 41.7387 106.626 41.8571 106.7Z" fill="#FF5555"/>
<path d="M41.0428 111.157C41.3537 111.157 41.5906 110.906 41.5906 110.61C41.5906 109.81 41.6943 109.01 41.9164 108.24C41.9608 108.092 41.9312 107.944 41.872 107.826C41.798 107.692 41.6795 107.604 41.5462 107.559C41.3981 107.515 41.2501 107.53 41.1316 107.604C40.9983 107.678 40.9095 107.796 40.8651 107.944C40.6282 108.818 40.5097 109.706 40.5097 110.61C40.4801 110.906 40.7318 111.157 41.0428 111.157Z" fill="#FF5555"/>
<path d="M59.0486 104.019L53.9252 120.796L49.3497 109.439C49.2608 109.232 49.0683 109.098 48.8462 109.098C48.6241 109.098 48.4316 109.217 48.3428 109.409L44.9815 116.384H39.6656C39.3546 116.384 39.1177 116.635 39.1177 116.932C39.1177 117.243 39.3694 117.479 39.6656 117.479H45.322C45.5293 117.479 45.7218 117.361 45.8255 117.169L48.787 111.009L53.481 122.647C53.5698 122.855 53.7623 122.988 53.9993 122.988H54.0289C54.2658 122.973 54.4583 122.825 54.5323 122.603L59.5817 106.048L64.6311 122.603C64.7051 122.825 64.8976 122.988 65.1345 122.988C65.1493 122.988 65.1493 122.988 65.1641 122.988C65.3863 122.988 65.5788 122.855 65.6676 122.647L70.3616 111.009L73.3231 117.169C73.412 117.361 73.6045 117.479 73.8266 117.479H79.4831C79.794 117.479 80.0309 117.228 80.0309 116.932C80.0309 116.621 79.7792 116.384 79.4831 116.384H74.1671L70.8058 109.424C70.717 109.232 70.5245 109.113 70.3024 109.113C70.0803 109.113 69.8878 109.261 69.8137 109.454L65.2382 120.811L60.1148 104.034C60.0407 103.812 59.8334 103.679 59.5817 103.679C59.33 103.664 59.1227 103.797 59.0486 104.019Z" fill="#FF5555"/>
<path d="M38.3207 45.2522C37.3286 45.2522 36.5142 44.4378 36.5142 43.4457C36.5142 42.4536 37.3286 41.6392 38.3207 41.6392C39.3128 41.6392 40.1272 42.4536 40.1272 43.4457C40.1272 44.4378 39.3128 45.2522 38.3207 45.2522ZM38.3207 42.2019C37.6395 42.2019 37.0768 42.7645 37.0768 43.4457C37.0768 44.1268 37.6395 44.6895 38.3207 44.6895C39.0018 44.6895 39.5645 44.1268 39.5645 43.4457C39.5645 42.7645 39.0166 42.2019 38.3207 42.2019ZM38.3207 44.6007C37.684 44.6007 37.1657 44.0824 37.1657 43.4457C37.1657 42.809 37.684 42.2907 38.3207 42.2907C38.9574 42.2907 39.4757 42.809 39.4757 43.4457C39.4757 44.0824 38.9574 44.6007 38.3207 44.6007ZM38.3207 42.8534C37.9949 42.8534 37.7136 43.1199 37.7136 43.4605C37.7136 43.7863 37.9801 44.0676 38.3207 44.0676C38.6464 44.0676 38.9278 43.8011 38.9278 43.4605C38.9278 43.1199 38.6613 42.8534 38.3207 42.8534Z" fill="#878787"/>
<path d="M64.1008 48.4355H28.2813C28.1333 48.4355 28 48.317 28 48.1541V41.3427C28 36.2341 32.0277 32.2212 37.3584 31.9843C37.4472 31.9843 37.5361 32.0139 37.5805 32.088C37.6397 32.162 37.6545 32.2508 37.6249 32.3397C36.4847 36.545 37.1363 40.1581 37.3584 41.165C37.388 41.2834 37.3288 41.4167 37.2251 41.4759C36.4995 41.8758 36.0405 42.6457 36.0405 43.4602C36.0405 44.7188 37.0622 45.7405 38.3209 45.7405C39.5795 45.7405 40.6012 44.7188 40.6012 43.4602C40.6012 42.2015 39.5795 41.1798 38.3209 41.1798C38.2764 41.1798 38.2468 41.1798 38.2024 41.1946L38.0988 41.2094C37.9507 41.2242 37.8322 41.1206 37.8026 40.9873C37.5361 39.6694 37.0326 36.16 38.158 32.1768C38.1876 32.0583 38.3061 31.9695 38.4245 31.9695H40.6012V30.1334H35.0484C34.9299 30.1334 34.8263 30.0593 34.7819 29.9557C34.7374 29.852 34.7819 29.7187 34.8707 29.6447C36.5143 28.2972 36.4403 24.9507 36.1738 23.3663C34.9003 15.8589 36.5884 12.2755 37.7878 10.7651L35.1372 4.42745C35.0928 4.3238 35.1224 4.22015 35.1817 4.13131L35.6407 3.61303C35.774 3.46496 38.9724 0 46.3021 0C53.6467 0 56.8303 3.46496 56.9636 3.61303L57.4226 4.1165C57.4966 4.19053 57.5114 4.30899 57.467 4.41264L54.7276 10.9428C55.853 12.4828 57.4226 16.0662 56.1936 23.3515C55.927 24.9359 55.853 28.2824 57.4966 29.6299C57.5855 29.7039 57.6151 29.8224 57.5855 29.9409C57.5411 30.0445 57.4374 30.1185 57.3189 30.1185H51.7661V31.9547H54.5351C54.6092 31.9547 54.6832 31.9547 54.7572 31.9695H54.8905C55.0386 31.9695 55.157 32.1028 55.157 32.2508V35.1087C55.157 35.2568 55.0386 35.39 54.8757 35.39H54.7424C52.6101 35.39 50.8777 37.1077 50.848 39.2252H51.47C51.47 39.0179 51.4996 38.8254 51.5292 38.6329C51.5736 38.4256 51.6328 38.2183 51.7217 38.0258C51.8846 37.6408 52.1215 37.2854 52.4176 36.9893C52.5657 36.8412 52.7286 36.7079 52.9063 36.5895C53.084 36.471 53.2617 36.3673 53.469 36.2933C53.8688 36.1156 54.2982 36.0416 54.7424 36.0416H56.0899C56.5341 36.0416 56.9636 36.1304 57.3634 36.2933C57.5559 36.3821 57.7484 36.471 57.9112 36.5895C58.0889 36.7079 58.2518 36.8412 58.3999 36.9893C58.696 37.2854 58.933 37.6408 59.0958 38.0258C59.1847 38.2183 59.2439 38.4256 59.2883 38.6329C59.3328 38.8254 59.3476 39.0327 59.3476 39.2252H59.9695C59.9399 37.1077 58.2074 35.39 56.0751 35.39H55.9418C55.7938 35.39 55.6605 35.2716 55.6605 35.1087V32.3397C55.6605 32.2656 55.6901 32.1768 55.7493 32.1324C55.8086 32.0731 55.8974 32.0583 55.9715 32.0731C60.9024 32.7395 64.3377 36.5598 64.3377 41.3427V48.1541C64.3673 48.3022 64.2489 48.4355 64.1008 48.4355ZM28.5627 47.8728H63.8195V41.3427C63.8195 36.9448 60.7247 33.4206 56.2528 32.6654V34.8274C58.6368 34.9014 60.5618 36.8708 60.5618 39.2696V39.4769C60.5618 39.625 60.4433 39.7583 60.2805 39.7583H59.0958C58.9478 39.7583 58.8145 39.6398 58.8145 39.4769V39.2696C58.8145 39.0919 58.7997 38.8994 58.7553 38.7217C58.7257 38.5441 58.6664 38.3812 58.5924 38.2183C58.4591 37.8925 58.2666 37.6112 58.0149 37.3594C57.8964 37.241 57.7632 37.1225 57.6151 37.0337C57.467 36.93 57.3189 36.856 57.1561 36.7819C56.8155 36.6339 56.4601 36.5746 56.1047 36.5746H54.7572C54.3871 36.5746 54.0317 36.6487 53.7059 36.7819C53.543 36.856 53.3949 36.93 53.2469 37.0337C53.0988 37.1373 52.9655 37.241 52.8471 37.3594C52.5953 37.6112 52.4028 37.8925 52.2696 38.2183C52.1955 38.3812 52.1511 38.5589 52.1067 38.7217C52.0771 38.8994 52.0475 39.0771 52.0475 39.2696V39.4769C52.0475 39.625 51.929 39.7583 51.7661 39.7583H50.5815C50.4334 39.7583 50.3002 39.6398 50.3002 39.4769V39.2696C50.3002 36.8708 52.2103 34.9014 54.5944 34.8274V32.5174C54.5647 32.5174 54.5499 32.5174 54.5203 32.5174H51.4848C51.4107 32.5174 51.3367 32.4878 51.2923 32.4285C51.233 32.3693 51.2034 32.3101 51.2034 32.236V29.8372C51.2034 29.6891 51.3219 29.5559 51.4848 29.5559H56.6526C54.9645 27.4532 55.6161 23.4403 55.6457 23.2478C56.8747 15.9625 55.2607 12.542 54.1946 11.1501C54.1353 11.076 54.1205 10.9724 54.1649 10.8687L56.8895 4.35341L56.549 3.96842C56.4305 3.83516 53.3949 0.533073 46.3021 0.533073C39.2093 0.533073 36.1886 3.82034 36.0553 3.95361L35.7147 4.33861L38.3653 10.6614C38.4097 10.7651 38.3949 10.8687 38.3209 10.9428C37.1807 12.3051 35.463 15.7108 36.7217 23.233C36.7513 23.4107 37.4028 27.4384 35.7147 29.5411H40.8826C41.0306 29.5411 41.1639 29.6595 41.1639 29.8224V32.2212C41.1639 32.3693 41.0455 32.5026 40.8826 32.5026H38.6466C37.6841 36.0564 38.0543 39.1956 38.3209 40.6023C39.9053 40.6023 41.1639 41.8609 41.1639 43.4305C41.1639 44.9853 39.8905 46.2588 38.3357 46.2588C36.7809 46.2588 35.5074 44.9853 35.5074 43.4305C35.5074 42.4829 35.9961 41.5944 36.8105 41.0613C36.5588 39.8471 36.0553 36.471 37.0326 32.5322C32.1905 32.9172 28.5923 36.6339 28.5923 41.3131V47.8728H28.5627ZM56.7711 47.2805C56.5045 47.2805 56.238 47.2065 56.0307 47.0584C55.8234 46.9103 55.6753 46.6882 55.6457 46.4513C55.6013 46.2144 55.6605 45.9626 55.8234 45.7553C56.0159 45.4888 56.3268 45.2963 56.6822 45.2371C56.9191 45.1926 57.1561 45.2222 57.3782 45.2963C58.3555 44.8076 58.9922 43.8155 58.9922 42.705V40.1136C58.9922 39.9656 59.1107 39.8323 59.2735 39.8323H60.1028C60.2508 39.8323 60.3841 39.9508 60.3841 40.1136V42.705C60.3841 44.3338 59.4512 45.8146 58.0001 46.5401C57.852 46.9103 57.4818 47.1917 57.0228 47.2657C56.934 47.2657 56.8599 47.2805 56.7711 47.2805ZM56.9191 45.7701C56.8747 45.7701 56.8155 45.7701 56.7711 45.7849C56.5638 45.8146 56.3713 45.933 56.2676 46.0663C56.2232 46.1255 56.164 46.2292 56.1936 46.3476C56.2084 46.4661 56.2972 46.5549 56.3565 46.5994C56.5045 46.703 56.7118 46.7474 56.9191 46.703C57.2005 46.6586 57.4374 46.4809 57.4818 46.2588C57.4966 46.1699 57.5559 46.1107 57.6299 46.0663C58.9478 45.4592 59.8066 44.1265 59.8066 42.6902V40.3654H59.5253V42.6902C59.5253 44.0525 58.7257 45.2815 57.467 45.8294C57.393 45.859 57.3041 45.859 57.2301 45.8294C57.1561 45.7849 57.0376 45.7701 56.9191 45.7701ZM54.0761 47.2805C54.0021 47.2805 53.9132 47.2805 53.8392 47.2657C53.3949 47.1917 53.0248 46.9103 52.8619 46.5401C51.4107 45.8146 50.4779 44.3338 50.4779 42.705V40.1136C50.4779 39.9656 50.5963 39.8323 50.7592 39.8323H51.5884C51.7365 39.8323 51.8698 39.9508 51.8698 40.1136V42.705C51.8698 43.8007 52.5065 44.8076 53.4838 45.2963C53.7059 45.2222 53.9428 45.1926 54.1797 45.2371C54.5351 45.2963 54.8461 45.4888 55.0386 45.7553C55.1867 45.9626 55.2459 46.2144 55.2163 46.4513C55.1719 46.6882 55.0386 46.9103 54.8313 47.0584C54.6092 47.1917 54.3574 47.2805 54.0761 47.2805ZM51.0405 40.3802V42.705C51.0405 44.1561 51.8994 45.474 53.2173 46.0811C53.2913 46.1107 53.3505 46.1847 53.3653 46.2736C53.4098 46.4809 53.6467 46.6586 53.928 46.7178C54.1353 46.7474 54.3426 46.7178 54.4907 46.6142C54.5499 46.5697 54.6388 46.4809 54.6536 46.3624C54.6684 46.244 54.624 46.1403 54.5795 46.0811C54.4759 45.933 54.2834 45.8294 54.0761 45.7997C53.8984 45.7701 53.7355 45.7998 53.5874 45.859C53.5134 45.9034 53.4246 45.9034 53.3505 45.859C52.1067 45.3111 51.2923 44.0673 51.2923 42.7198V40.395H51.0405V40.3802ZM46.1837 36.9152C43.6664 36.9152 41.6822 34.857 41.6822 32.236V30.0001C41.6822 29.8964 41.7266 29.8076 41.8154 29.7632C41.9043 29.7187 42.0079 29.7039 42.082 29.7484C43.3554 30.3851 44.8066 30.7405 46.1837 30.7405C47.5608 30.7405 49.0119 30.3851 50.2854 29.7484C50.3742 29.7039 50.4779 29.7039 50.5519 29.7632C50.6407 29.8076 50.6852 29.8964 50.6852 30.0001V32.236C50.6852 34.857 48.7158 36.9152 46.1837 36.9152ZM42.2449 30.4443V32.236C42.2449 34.546 43.9773 36.3525 46.1837 36.3525C48.39 36.3525 50.1225 34.546 50.1225 32.236V30.4443C48.8786 31.007 47.4867 31.3032 46.1837 31.3032C44.8658 31.3032 43.4887 31.007 42.2449 30.4443ZM46.1837 30.2222C45.8135 30.2222 45.4137 30.1926 44.9695 30.1185C42.7631 29.778 40.8381 28.5786 40.2607 27.6013C39.9941 27.1422 39.7424 25.9428 39.5795 24.1363L39.5499 23.8846L39.2982 23.8994C39.2685 23.9142 39.2389 23.9142 39.2093 23.9142C38.3653 23.9142 37.6397 22.7888 37.4028 21.1156C37.2695 20.1827 37.4176 19.3979 37.8026 18.9537C37.9951 18.7315 38.2468 18.6279 38.6022 18.6131C38.7355 18.5983 38.8391 18.6871 38.8836 18.8056C39.002 19.2202 39.1353 19.5608 39.2389 19.8421C39.4166 18.9092 39.6832 17.4433 39.8164 16.8066C39.9201 16.2587 40.0682 15.4887 40.2014 14.6595C40.2755 14.2301 40.3347 13.7858 40.3939 13.3416C40.4087 13.2528 40.468 13.1639 40.5568 13.1195C40.6457 13.0751 40.7493 13.0899 40.8233 13.1343C41.3564 13.4897 42.9556 14.3633 46.1541 14.9112C47.6348 15.1629 49.5598 15.3258 51.5588 15.3554H51.7809C51.8846 15.3554 51.9734 15.3554 52.0771 15.3554C52.2103 15.3554 52.3288 15.4591 52.3436 15.5775C52.4176 15.9921 52.4917 16.3771 52.5509 16.6881L52.5657 16.7621C52.6842 17.3989 52.9655 18.8648 53.1432 19.7977C53.2617 19.5311 53.3801 19.1758 53.4986 18.7612C53.5282 18.6427 53.6467 18.5391 53.7799 18.5687C54.1353 18.5835 54.3871 18.7019 54.5795 18.9092C54.9645 19.3535 55.1126 20.1383 54.9794 21.0711C54.7424 22.7444 54.0317 23.8698 53.2321 23.8846L52.8175 23.855L52.7878 24.1067C52.6101 25.9132 52.3732 27.1126 52.1067 27.5716C51.5292 28.5489 49.619 29.7484 47.3979 30.0889C46.9537 30.1926 46.5539 30.2222 46.1837 30.2222ZM39.8016 23.3071C39.9497 23.3071 40.0682 23.4107 40.083 23.5588L40.1274 24.0771C40.3643 26.4611 40.6308 27.1274 40.7345 27.3199C41.1491 28.0307 42.8076 29.2301 45.0435 29.5707C45.8875 29.7039 46.465 29.7039 47.309 29.5707C49.545 29.2301 51.2034 28.0307 51.618 27.3199C51.7217 27.1422 52.003 26.4611 52.2251 24.0771L52.2696 23.5588C52.2844 23.4107 52.4176 23.2923 52.5657 23.3071L53.2321 23.3663C53.6171 23.3663 54.1946 22.463 54.4019 21.0267C54.5055 20.2863 54.4019 19.62 54.1353 19.309C54.0909 19.2498 54.0317 19.2202 53.9428 19.1906C53.6022 20.2715 53.2469 20.849 53.2321 20.8638C53.1728 20.9675 53.0544 21.0119 52.9507 20.9971C52.8323 20.9823 52.7434 20.8934 52.7286 20.775C52.7286 20.775 52.1807 17.8727 52.003 16.9102L51.9882 16.8362C51.9438 16.5696 51.8846 16.2735 51.8105 15.9477C51.7809 15.9477 51.7661 15.9477 51.7365 15.9477H51.5144C49.4858 15.9033 47.5312 15.7404 46.0208 15.4887C43.2666 15.0149 41.6526 14.2893 40.853 13.8451C40.8085 14.156 40.7641 14.4522 40.7197 14.7631C40.5864 15.5924 40.4383 16.3771 40.3347 16.925C40.1422 17.8875 39.6091 20.7898 39.6091 20.7898C39.5943 20.9083 39.5055 20.9971 39.387 21.0119C39.2685 21.0267 39.1649 20.9823 39.1057 20.8786C39.0909 20.849 38.7355 20.2715 38.3949 19.2054C38.3061 19.235 38.2468 19.2646 38.2024 19.3238C37.9359 19.6348 37.8322 20.3011 37.9359 21.0415C38.1432 22.5075 38.7059 23.3219 39.1501 23.3663C39.1797 23.3663 39.2093 23.3515 39.2389 23.3515L39.772 23.3219C39.8016 23.3071 39.8016 23.3071 39.8016 23.3071ZM39.3574 23.8698C39.3426 23.8846 39.3278 23.8846 39.2982 23.8994C39.3278 23.8994 39.3426 23.8846 39.3574 23.8698ZM53.3209 11.076C53.2913 11.076 53.2617 11.076 53.2321 11.0612C50.8925 10.2172 47.0721 10.0839 46.3317 10.0691C45.5469 10.0839 41.7266 10.2172 39.4018 11.0612C39.2685 11.1057 39.1057 11.0464 39.0464 10.9132L36.4255 4.63476C36.3811 4.53111 36.4107 4.42746 36.4699 4.33861C36.5884 4.20534 39.461 1.08094 46.3169 1.08094C53.1728 1.08094 56.0455 4.20534 56.164 4.33861C56.238 4.41265 56.2528 4.53111 56.2084 4.63476L53.5874 10.9132C53.5282 11.002 53.4246 11.076 53.3209 11.076ZM36.9882 4.59034L39.4462 10.4541C41.8747 9.65452 45.5469 9.53606 46.2725 9.52125C46.2873 9.52125 46.3169 9.52125 46.3317 9.52125C47.0721 9.53606 50.7296 9.65452 53.158 10.4541L55.6161 4.59034C55.009 4.02765 52.1363 1.64364 46.3021 1.64364C40.468 1.64364 37.5953 4.01284 36.9882 4.59034Z" fill="#878787"/>
<path d="M47.2793 8.2477H45.5468C45.3987 8.2477 45.2655 8.12924 45.2655 7.96635V6.36713H43.5626C43.4145 6.36713 43.2812 6.24868 43.2812 6.0858V4.33851C43.2812 4.19043 43.3997 4.05716 43.5626 4.05716H45.2655V2.47275C45.2655 2.32468 45.3839 2.19141 45.5468 2.19141H47.2793C47.4274 2.19141 47.5606 2.30987 47.5606 2.47275V4.05716H49.0414C49.1895 4.05716 49.3227 4.17562 49.3227 4.33851V6.0858C49.3227 6.23387 49.2043 6.36713 49.0414 6.36713H47.5606V7.96635C47.5606 8.12924 47.4422 8.2477 47.2793 8.2477ZM45.8281 7.69982H47.0127V6.1006C47.0127 5.95252 47.1312 5.81926 47.2941 5.81926H48.7748V4.63465H47.2941C47.146 4.63465 47.0127 4.51619 47.0127 4.35331V2.7689H45.8281V4.35331C45.8281 4.50138 45.7097 4.63465 45.5468 4.63465H43.8439V5.81926H45.5468C45.6949 5.81926 45.8281 5.93772 45.8281 6.1006V7.69982Z" fill="#878787"/>
<path d="M0 60.9804L0.0296144 60.5362C0.310958 56.9528 3.24285 54.1393 6.82628 54.0061C10.4245 53.858 13.5489 56.4345 14.1264 59.9883L14.2004 60.4177L0 60.9804ZM7.12243 54.7761C7.03359 54.7761 6.95955 54.7761 6.8707 54.7761C3.82035 54.8945 1.31787 57.1749 0.873646 60.1512L13.2824 59.6626C12.616 56.8195 10.0691 54.7761 7.12243 54.7761Z" fill="#878787"/>
<path d="M7.1226 68.2064C3.64283 68.2064 0.651702 65.6744 0.103823 62.2094L0.0297852 61.78L14.2302 61.2173L14.2006 61.6615C13.9193 65.2449 10.9874 68.0584 7.40394 68.2064C7.30029 68.2064 7.21145 68.2064 7.1226 68.2064ZM0.962661 62.5352C1.64381 65.4671 4.32398 67.5697 7.35952 67.4217C10.4099 67.3032 12.9124 65.0228 13.3566 62.0465L0.962661 62.5352Z" fill="#878787"/>
<path d="M284 166.98L284.03 166.536C284.311 162.953 287.243 160.139 290.826 160.006C294.425 159.858 297.549 162.435 298.126 165.988L298.2 166.418L284 166.98ZM291.122 160.776C291.034 160.776 290.96 160.776 290.871 160.776C287.82 160.895 285.318 163.175 284.874 166.151L297.282 165.663C296.616 162.82 294.069 160.776 291.122 160.776Z" fill="#878787"/>
<path d="M291.123 174.206C287.643 174.206 284.652 171.674 284.104 168.209L284.03 167.78L298.23 167.217L298.201 167.662C297.919 171.245 294.987 174.058 291.404 174.206C291.3 174.206 291.211 174.206 291.123 174.206ZM284.963 168.535C285.644 171.467 288.324 173.57 291.36 173.422C294.41 173.303 296.912 171.023 297.357 168.047L284.963 168.535Z" fill="#878787"/>
</svg>
