<svg width="53" height="53" viewBox="0 0 53 53" fill="none" xmlns="http://www.w3.org/2000/svg">
<circle cx="26.5" cy="26.5" r="25.5" stroke="black" stroke-width="2"/>
<path d="M33.8082 31.8466C32.8281 30.879 31.6045 30.879 30.6306 31.8466C29.8877 32.5833 29.1448 33.32 28.4144 34.0691C28.2146 34.2751 28.046 34.3188 27.8026 34.1815C27.3219 33.9193 26.81 33.707 26.348 33.4198C24.1942 32.0651 22.39 30.3234 20.7918 28.3631C19.999 27.3892 19.2935 26.3467 18.8004 25.173C18.7005 24.9358 18.7192 24.7797 18.9127 24.5862C19.6556 23.8683 20.3798 23.1316 21.1102 22.3949C22.1278 21.3711 22.1278 20.1725 21.104 19.1424C20.5234 18.5556 19.9428 17.9812 19.3622 17.3944C18.7629 16.7951 18.1698 16.1895 17.5643 15.5965C16.5841 14.6413 15.3605 14.6413 14.3866 15.6027C13.6375 16.3394 12.9196 17.0947 12.1579 17.8189C11.4525 18.4869 11.0967 19.3047 11.0217 20.2599C10.9031 21.8143 11.2839 23.2814 11.8208 24.711C12.9196 27.6702 14.5927 30.2984 16.6216 32.7082C19.3622 35.9669 22.6335 38.5452 26.4604 40.4056C28.1834 41.2422 29.9689 41.8852 31.9104 41.9913C33.2464 42.0662 34.4075 41.7291 35.3377 40.6865C35.9745 39.9749 36.6924 39.3256 37.3667 38.6451C38.3655 37.6338 38.3718 36.4102 37.3791 35.4113C36.193 34.2189 35.0006 33.0328 33.8082 31.8466Z" fill="black"/>
<path d="M32.6159 26.8705L34.9195 26.4772C34.5574 24.3609 33.5586 22.4443 32.0416 20.9211C30.4371 19.3167 28.4082 18.3053 26.1733 17.9932L25.8486 20.3093C27.5779 20.5527 29.1511 21.3331 30.3934 22.5754C31.5671 23.7491 32.335 25.2349 32.6159 26.8705Z" fill="black"/>
<path d="M36.2183 16.857C33.5588 14.1975 30.1939 12.5182 26.4794 12L26.1548 14.3161C29.3636 14.7656 32.2728 16.2202 34.5702 18.5113C36.7489 20.6901 38.1786 23.4432 38.6967 26.471L41.0003 26.0777C40.3948 22.5692 38.7404 19.3853 36.2183 16.857Z" fill="black"/>
</svg>
