<svg width="11" height="19" viewBox="0 0 11 19" fill="none" xmlns="http://www.w3.org/2000/svg">
<path d="M10.6191 1.836C10.6224 1.96778 10.5999 2.09876 10.5528 2.22144C10.5057 2.34412 10.4349 2.45609 10.3446 2.55093L3.22745 9.95077L10.6273 17.1504C10.8182 17.3363 10.9283 17.5906 10.9335 17.8573C10.9386 18.1239 10.8384 18.3811 10.6548 18.5723C10.4712 18.7634 10.2193 18.8728 9.95455 18.8765C9.68977 18.8801 9.43377 18.7777 9.24289 18.5917L1.13328 10.6908C1.03829 10.599 0.962172 10.4893 0.909329 10.3679C0.856486 10.2466 0.827962 10.1161 0.825402 9.9839C0.822842 9.85172 0.846297 9.72048 0.894414 9.59776C0.942531 9.47504 1.01436 9.36327 1.10575 9.2689L8.9051 1.14851C8.99572 1.05338 9.10425 0.977371 9.22443 0.924863C9.34461 0.872355 9.47406 0.844389 9.60532 0.842578C9.73658 0.840768 9.86705 0.865148 9.9892 0.914314C10.1114 0.963479 10.2228 1.03646 10.317 1.12903C10.411 1.22133 10.486 1.33129 10.5379 1.4526C10.5897 1.57392 10.6173 1.70421 10.6191 1.836Z" fill="white"/>
</svg>
